<svg width="63" height="63" viewBox="0 0 63 63" fill="none" xmlns="http://www.w3.org/2000/svg">
<path d="M50.4569 11.1809C50.9563 11.6821 51.2373 12.3605 51.2385 13.0681V59.2478C51.2385 59.5986 51.1694 59.9458 51.0351 60.2698C50.9008 60.5938 50.704 60.8881 50.4559 61.136C50.2077 61.3838 49.9132 61.5804 49.5891 61.7143C49.265 61.8483 48.9176 61.917 48.5669 61.9167H3.17442C2.82347 61.9174 2.47583 61.8489 2.15139 61.7151C1.82694 61.5813 1.53207 61.3849 1.28366 61.137C1.03524 60.8891 0.838158 60.5946 0.703687 60.2705C0.569217 59.9463 0.500001 59.5988 0.500001 59.2478V3.17163C0.499633 2.82045 0.568578 2.47265 0.702884 2.14816C0.83719 1.82368 1.03422 1.52889 1.28267 1.2807C1.53112 1.0325 1.82611 0.835787 2.15074 0.70182C2.47536 0.567853 2.82324 0.499271 3.17442 0.500006H38.6705C39.3768 0.500006 40.0551 0.779172 40.5576 1.28167L50.4569 11.1809Z" fill="#E4F1F5"/>
<path d="M50.4569 11.1809L40.5576 1.28167C40.0564 0.782202 39.378 0.501213 38.6705 0.500001H3.17442C2.82334 0.499635 2.47563 0.568468 2.15117 0.702565C1.82671 0.836662 1.53187 1.03339 1.28349 1.28151C1.03511 1.52963 0.838068 1.82428 0.703632 2.14859C0.569196 2.47291 0.5 2.82055 0.5 3.17163V59.2478C0.5 59.9541 0.779167 60.6325 1.28167 61.135L50.7668 11.6499C50.6795 11.4836 50.5757 11.3264 50.4569 11.1809Z" fill="white"/>
<path d="M16.5241 24.5335C17.2254 24.5335 17.9198 24.3953 18.5678 24.1269C19.2157 23.8586 19.8044 23.4652 20.3003 22.9693C20.7962 22.4734 21.1896 21.8846 21.458 21.2367C21.7264 20.5888 21.8645 19.8943 21.8645 19.193C21.8645 18.4917 21.7264 17.7972 21.458 17.1493C21.1896 16.5014 20.7962 15.9126 20.3003 15.4167C19.8044 14.9208 19.2157 14.5274 18.5678 14.2591C17.9198 13.9907 17.2254 13.8525 16.5241 13.8525C15.1077 13.8525 13.7493 14.4152 12.7478 15.4167C11.7462 16.4183 11.1836 17.7766 11.1836 19.193C11.1836 20.6094 11.7462 21.9677 12.7478 22.9693C13.7493 23.9708 15.1077 24.5335 16.5241 24.5335Z" fill="#FFEF5E"/>
<path d="M31.007 26.342C30.8874 26.1499 30.7209 25.9913 30.523 25.8814C30.3252 25.7715 30.1026 25.7139 29.8763 25.7139C29.65 25.7139 29.4275 25.7715 29.2297 25.8814C29.0318 25.9913 28.8653 26.1499 28.7457 26.342L21.6996 37.6175L18.8241 33.0197C18.7041 32.8282 18.5374 32.6703 18.3396 32.5609C18.1418 32.4514 17.9195 32.394 17.6935 32.394C17.4675 32.394 17.2452 32.4514 17.0474 32.5609C16.8497 32.6703 16.6829 32.8282 16.5629 33.0197L8.51172 45.892H43.2233L31.007 26.342Z" fill="#78EB7B"/>
<path d="M34.2258 31.4931L31.0209 26.3425C30.9015 26.1497 30.7349 25.9906 30.5368 25.8803C30.3387 25.77 30.1157 25.7121 29.8889 25.7121C29.6622 25.7121 29.4392 25.77 29.2411 25.8803C29.043 25.9906 28.8763 26.1497 28.7569 26.3425L21.6996 37.618L18.8241 33.0201C18.7041 32.8286 18.5374 32.6707 18.3396 32.5613C18.1418 32.4519 17.9195 32.3945 17.6935 32.3945C17.4675 32.3945 17.2452 32.4519 17.0474 32.5613C16.8497 32.6707 16.6829 32.8286 16.5629 33.0201L8.51172 45.8925H21.8615M16.5238 24.5335C17.2251 24.5335 17.9196 24.3953 18.5675 24.1269C19.2154 23.8586 19.8042 23.4652 20.3001 22.9693C20.796 22.4734 21.1894 21.8846 21.4577 21.2367C21.7261 20.5888 21.8643 19.8943 21.8643 19.193C21.8643 18.4917 21.7261 17.7972 21.4577 17.1493C21.1894 16.5014 20.796 15.9126 20.3001 15.4167C19.8042 14.9208 19.2154 14.5274 18.5675 14.2591C17.9196 13.9907 17.2251 13.8525 16.5238 13.8525C15.1074 13.8525 13.7491 14.4152 12.7475 15.4167C11.746 16.4183 11.1833 17.7766 11.1833 19.193C11.1833 20.6094 11.746 21.9677 12.7475 22.9693C13.7491 23.9708 15.1074 24.5335 16.5238 24.5335Z" stroke="#191919" stroke-linecap="round" stroke-linejoin="round"/>
<path d="M24.5363 61.9167H3.17442C2.82324 61.9174 2.47536 61.8488 2.15074 61.7149C1.82611 61.5809 1.53112 61.3842 1.28267 61.136C1.03422 60.8878 0.83719 60.593 0.702884 60.2685C0.568578 59.944 0.499633 59.5962 0.500001 59.245V3.17163C0.499633 2.82045 0.568578 2.47265 0.702884 2.14816C0.83719 1.82368 1.03422 1.52889 1.28267 1.2807C1.53112 1.0325 1.82611 0.835787 2.15074 0.70182C2.47536 0.567853 2.82324 0.499271 3.17442 0.500006H38.6705C39.3768 0.500006 40.0551 0.779172 40.5576 1.28167L50.4569 11.1809C50.9563 11.6821 51.2373 12.3605 51.2385 13.0681V21.8618" stroke="#191919" stroke-linecap="round" stroke-linejoin="round"/>
<path d="M47.7656 30.9966L51.8749 40.5274H59.8703C60.2756 40.5089 60.6767 40.6168 61.0181 40.836C61.3596 41.0552 61.6245 41.3749 61.7765 41.7512C61.9285 42.1274 61.9599 42.5415 61.8665 42.9364C61.773 43.3312 61.5594 43.6873 61.2549 43.9556L54.312 50.1419L58.1562 58.9887C58.3241 59.3931 58.3612 59.84 58.2622 60.2666C58.1632 60.6931 57.9331 61.078 57.6042 61.3672C57.2754 61.6563 56.8642 61.8352 56.4285 61.8788C55.9927 61.9224 55.5543 61.8284 55.1747 61.6101L45.898 56.3729L36.6017 61.6073C36.2225 61.8269 35.7839 61.9221 35.3477 61.8793C34.9116 61.8364 34.4999 61.6579 34.1706 61.3687C33.8413 61.0795 33.6111 60.6942 33.5123 60.2673C33.4136 59.8403 33.4513 59.3931 33.6202 58.9887L37.4588 50.1447L30.5159 43.9583C30.2118 43.6912 29.998 43.3363 29.9041 42.9425C29.8101 42.5488 29.8405 42.1356 29.9912 41.7599C30.1418 41.3842 30.4053 41.0644 30.7452 40.8447C31.0852 40.625 31.4849 40.516 31.8894 40.533H39.9015L44.0136 30.9994C44.1962 30.6593 44.4676 30.375 44.7989 30.1768C45.1303 29.9787 45.5091 29.874 45.8952 29.874C46.2812 29.874 46.6601 29.9787 46.9914 30.1768C47.3227 30.375 47.5941 30.6593 47.7767 30.9994L47.7656 30.9966Z" fill="#FFEF5E"/>
<path d="M51.8839 40.5273L47.7662 30.9965C47.5836 30.6564 47.3122 30.3721 46.9808 30.1739C46.6495 29.9757 46.2707 29.8711 45.8846 29.8711C45.4985 29.8711 45.1197 29.9757 44.7884 30.1739C44.4571 30.3721 44.1856 30.6564 44.003 30.9965L39.8881 40.5273H31.876C31.4719 40.5119 31.0729 40.6219 30.7338 40.8423C30.3947 41.0626 30.132 41.3825 29.9819 41.758C29.8317 42.1335 29.8014 42.5463 29.8951 42.9397C29.9889 43.3331 30.202 43.6879 30.5053 43.9554L37.4482 50.1418L33.6292 58.9802C33.4375 59.453 33.4276 59.98 33.6013 60.4598L53.5422 40.5217L51.8839 40.5273Z" fill="#FFF9BF"/>
<path d="M47.7656 30.9966L51.8749 40.5274H59.8702C60.2756 40.5089 60.6767 40.6168 61.0181 40.836C61.3596 41.0552 61.6245 41.3749 61.7765 41.7512C61.9285 42.1274 61.9599 42.5415 61.8665 42.9364C61.773 43.3312 61.5594 43.6873 61.2549 43.9556L54.312 50.1419L58.1562 58.9887C58.3241 59.3931 58.3612 59.84 58.2622 60.2666C58.1632 60.6931 57.9331 61.078 57.6042 61.3672C57.2754 61.6563 56.8642 61.8352 56.4285 61.8788C55.9927 61.9224 55.5543 61.8284 55.1747 61.6101L45.898 56.3729L36.6017 61.6073C36.2225 61.8269 35.7839 61.9221 35.3477 61.8793C34.9116 61.8364 34.4999 61.6579 34.1706 61.3687C33.8413 61.0795 33.6111 60.6942 33.5123 60.2673C33.4136 59.8403 33.4513 59.3931 33.6202 58.9887L37.4588 50.1447L30.5159 43.9583C30.2118 43.6912 29.998 43.3363 29.9041 42.9425C29.8101 42.5488 29.8405 42.1356 29.9912 41.7599C30.1418 41.3842 30.4053 41.0644 30.7452 40.8447C31.0852 40.625 31.4849 40.516 31.8894 40.533H39.9015L44.0136 30.9994C44.1962 30.6593 44.4676 30.375 44.7989 30.1768C45.1303 29.9787 45.5091 29.874 45.8952 29.874C46.2812 29.874 46.6601 29.9787 46.9914 30.1768C47.3227 30.375 47.5941 30.6593 47.7767 30.9994L47.7656 30.9966Z" stroke="#191919" stroke-linecap="round" stroke-linejoin="round"/>
</svg>
